<svg xmlns="http://www.w3.org/2000/svg" width="800" height="600" viewBox="0 0 800 600">
  <defs>
    <linearGradient id="bg" x1="0" y1="0" x2="0" y2="1">
      <stop offset="0%" stop-color="#1C2B1A"/>
      <stop offset="100%" stop-color="#142016"/>
    </linearGradient>
    <radialGradient id="glow" cx="78%" cy="40%" r="55%">
      <stop offset="0%" stop-color="#C8A96E" stop-opacity="0.22"/>
      <stop offset="100%" stop-color="#C8A96E" stop-opacity="0"/>
    </radialGradient>
  </defs>

  <rect width="800" height="600" fill="url(#bg)"/>
  <rect width="800" height="600" fill="url(#glow)"/>

  <g transform="translate(640 320)" fill="none" stroke="#C8A96E" stroke-opacity="0.5" stroke-width="1.4" stroke-linecap="round" stroke-linejoin="round">
    <path d="M 0 240 C 0 120, -10 0, -5 -120 C 0 -200, 30 -240, 20 -260"/>
    <g>
      <ellipse cx="0" cy="-260" rx="22" ry="40" transform="rotate(0 0 -260)"/>
      <ellipse cx="0" cy="-260" rx="22" ry="40" transform="rotate(45 0 -260)"/>
      <ellipse cx="0" cy="-260" rx="22" ry="40" transform="rotate(90 0 -260)"/>
      <ellipse cx="0" cy="-260" rx="22" ry="40" transform="rotate(135 0 -260)"/>
      <ellipse cx="0" cy="-260" rx="22" ry="40" transform="rotate(180 0 -260)"/>
      <ellipse cx="0" cy="-260" rx="22" ry="40" transform="rotate(225 0 -260)"/>
      <ellipse cx="0" cy="-260" rx="22" ry="40" transform="rotate(270 0 -260)"/>
      <ellipse cx="0" cy="-260" rx="22" ry="40" transform="rotate(315 0 -260)"/>
    </g>
    <circle cx="0" cy="-260" r="14" fill="#C8A96E" fill-opacity="0.35"/>
    <path d="M -5 -130 C -45 -135, -90 -130, -130 -150"/>
    <path d="M 0 -50 C 45 -50, 90 -50, 130 -70"/>
    <ellipse cx="-100" cy="-140" rx="40" ry="12" transform="rotate(-15 -100 -140)"/>
    <ellipse cx="100" cy="-60" rx="40" ry="12" transform="rotate(15 100 -60)"/>
  </g>

  <g fill="#C8A96E" fill-opacity="0.55">
    <circle cx="120" cy="120" r="3"/>
    <circle cx="180" cy="480" r="2.4"/>
    <circle cx="520" cy="540" r="2"/>
    <circle cx="60"  cy="340" r="2"/>
  </g>

  <text x="60" y="120" font-family="DM Sans, system-ui, sans-serif" font-size="18" letter-spacing="6" fill="#C8A96E" opacity="0.85">FETHIYE · FLORIST</text>

  <text
    x="60" y="320"
    font-family="Cormorant Garamond, Georgia, serif"
    font-style="italic"
    font-size="140"
    font-weight="400"
    letter-spacing="4"
    fill="#C8A96E"
  >
    FLORA ART
  </text>

  <text x="60" y="380" font-family="DM Sans, system-ui, sans-serif" font-size="26" fill="#F5F0E8" opacity="0.85">
    Holland Premium Florist
  </text>

  <line x1="60" y1="500" x2="180" y2="500" stroke="#C8A96E" stroke-width="1"/>
  <text x="60" y="540" font-family="DM Sans, system-ui, sans-serif" font-size="15" letter-spacing="4" fill="#F5F0E8" opacity="0.7">
    2H TURKEY · 1 DAY WORLDWIDE · 5.0 ★ 122 REVIEWS
  </text>
</svg>
